<?xml version="1.0" encoding="iso-8859-1"?>
<!-- Uploaded to: SVG Repo, www.svgrepo.com, Generator: SVG Repo Mixer Tools -->
<svg fill="#FEFEFE" height="800px" width="800px" version="1.1" id="Layer_1" xmlns="http://www.w3.org/2000/svg" xmlns:xlink="http://www.w3.org/1999/xlink" 
	 viewBox="0 0 455 455" xml:space="preserve">
<path d="M434.682,174.27c-15.574-15.573-36.766-22.167-57.112-19.82c0.305-2.657,0.479-5.343,0.479-8.057
	c0-18.544-7.222-35.978-20.334-49.091c-13.113-13.112-30.547-20.334-49.091-20.334c-2.714,0-5.4,0.173-8.056,0.479
	c2.347-20.347-4.247-41.538-19.821-57.112C267.634,7.222,250.2,0,231.656,0c-18.544,0-35.979,7.222-49.091,20.334l-1.664,1.664
	L55.662,265.988l-28.024,28.024C9.825,311.824,0.016,335.506,0.016,360.696s9.809,48.872,27.621,66.683
	C45.449,445.19,69.131,455,94.321,455c25.19,0,48.872-9.81,66.683-27.621l28.024-28.024l243.991-125.24l1.663-1.664
	C461.751,245.382,461.751,201.338,434.682,174.27z M336.502,118.515c7.446,7.446,11.547,17.347,11.547,27.877
	c0,10.284-3.912,19.967-11.03,27.351l-7.979,6.434l-54.199-54.199l6.434-7.979c7.383-7.119,17.065-11.03,27.35-11.03
	C319.154,106.968,329.055,111.069,336.502,118.515z M184.771,189.884l-30.857,38.267l-29.808-29.808l23.446-45.678L184.771,189.884z
	 M161.942,124.63l23.446-45.678l49.178,49.178l-30.857,38.267L161.942,124.63z M125.453,311.24l30.857-38.267l25.734,25.734
	l-38.267,30.856L125.453,311.24z M175.249,249.486l30.857-38.267l37.693,37.693l-38.267,30.857L175.249,249.486z M134.975,251.638
	l-30.857,38.267l-17.849-17.85l23.446-45.677L134.975,251.638z M165.112,350.898l38.267-30.856l25.26,25.26l-45.677,23.446
	L165.112,350.898z M226.865,301.103l38.267-30.857l37.219,37.219l-45.678,23.447L226.865,301.103z M288.62,251.307l38.267-30.857
	l49.178,49.178l-45.677,23.446L288.62,251.307z M267.285,229.972l-42.241-42.241l30.857-38.267l49.651,49.651L267.285,229.972z
	 M231.656,30c10.53,0,20.432,4.101,27.878,11.547c15.37,15.37,15.371,40.378,0.004,55.751c-0.005,0.005-0.572,0.572-0.572,0.572
	l-5.461,6.773l-53.726-53.726l5.576-10.863C212.594,33.554,221.852,30,231.656,30z M414.962,249.663l-10.862,5.575l-53.726-53.726
	l6.149-4.958l0.624-0.503l0.566-0.566c15.372-15.371,40.386-15.371,55.756,0C428.326,210.339,428.822,234.202,414.962,249.663z"/>
</svg>